<?xml version="1.0" encoding="UTF-8" standalone="no"?>
<svg width="142px" height="20px" viewBox="0 0 142 20" version="1.1" xmlns="http://www.w3.org/2000/svg" xmlns:xlink="http://www.w3.org/1999/xlink">
    <!-- Generator: Sketch 3.7 (28169) - http://www.bohemiancoding.com/sketch -->
    <title>nissan-logo</title>
    <desc>Created with Sketch.</desc>
    <defs></defs>
    <g id="Desktop" stroke="none" stroke-width="1" fill="none" fill-rule="evenodd">
        <g id="nissan-logo" fill="#FFFFFF">
            <path d="M5.13969856,0.00108871543 C1.71273748,0.00108871543 0.624164637,0.030810841 0.624164637,0.030810841 C0.101055227,0.0330400004 0,0.167532619 0,0.654975478 L0,19.3709979 C0,19.8814754 0.116659343,19.9951626 0.624164637,19.9951626 L4.54525605,19.9951626 C5.07430988,19.9951626 5.16942069,19.8569547 5.16942069,19.3709979 L5.16942069,4.69495539 C5.16942069,4.69495539 11.6369552,14.8346585 13.814844,18.2423002 C14.9175348,19.9676696 15.102555,19.9921904 18.2716767,19.9944195 L23.589708,19.9944195 C24.106873,19.9944195 24.2138726,19.8829615 24.2138726,19.3702549 L24.2138726,0.654232424 C24.2138726,0.16084514 24.1269354,0.0300677878 23.589708,0.0300677878 L19.6678735,0.0300677878 C19.1477363,0.0300677878 19.0444519,0.161588193 19.0444519,0.654232424 L19.0444519,15.5383298 C19.0444519,15.5383298 11.1807206,3.30470297 10.1612517,1.72274284 C8.97682497,-0.102938724 8.56220132,0.00108871543 5.13969856,0.00108871543 Z M122.542094,0.00108871543 C119.123307,0.00108871543 118.026561,0.030810841 118.026561,0.030810841 C117.504194,0.0330400004 117.402396,0.167532619 117.402396,0.654975478 L117.402396,19.3709979 C117.403882,19.8814754 117.521284,19.9951626 118.026561,19.9951626 L121.947652,19.9951626 C122.477449,19.9951626 122.571817,19.8569547 122.571817,19.3709979 L122.571817,4.69495539 C122.571817,4.69495539 129.038608,14.8346585 131.21724,18.2423002 C132.319931,19.9676696 132.525756,19.9921904 135.703052,19.9944195 L140.991361,19.9944195 C141.510755,19.9944195 141.615525,19.8829615 141.615525,19.3702549 L141.615525,0.654232424 C141.615525,0.16084514 141.528588,0.0300677878 140.991361,0.0300677878 L137.070269,0.0300677878 C136.550875,0.0300677878 136.446105,0.161588193 136.446105,0.654232424 L136.446105,15.5383298 C136.446105,15.5383298 128.589061,3.30470297 127.562905,1.72274284 C126.382936,-0.102938724 125.971285,0.00108871543 122.542094,0.00108871543 Z M29.4546264,0 C29.0756693,0 28.9790724,0.179075806 28.9790724,0.505276134 L28.9790724,19.3409301 C28.9790724,19.8618104 29.0786415,19.9650948 29.603237,19.9650948 L34.1484931,19.9650948 C34.6574845,19.9650948 34.7726577,19.828373 34.7726577,19.3409301 L34.7726577,0.53499826 C34.7726577,0.166443903 34.6418804,0 34.2376595,0 L29.4546264,0 Z M45.8590106,0 C42.1667795,0 40.0951474,1.34195397 39.530427,4.12988935 C39.4033649,4.75628314 39.3818164,5.52237093 39.3818164,6.06108445 C39.3818164,6.71274206 39.3996496,7.3859482 39.4709827,7.90311318 C39.6909265,9.50142048 40.6866177,11.3746574 44.9376247,11.7952255 C48.3162873,12.1288564 53.1684243,12.5449661 54.800912,12.6861462 C55.5387638,12.7493058 55.6769717,13.2909915 55.7222979,13.6067891 C55.7401312,13.7249345 55.7520201,13.9017812 55.7520201,14.1417873 C55.7520201,14.3535575 55.7483048,14.5749873 55.7222979,14.8848405 C55.6844022,15.326214 55.4704029,15.5387272 54.8900784,15.5387272 L40.0944043,15.5387272 C39.5764963,15.5387272 39.4717258,15.6561296 39.4702397,16.1628919 L39.4702397,19.311208 C39.4694966,19.8246577 39.5965587,19.9353727 40.0944043,19.9353727 L54.7117457,19.9353727 C58.3341297,19.9353727 60.701497,19.338701 61.3368074,16.192614 C61.4727862,15.5275814 61.4854181,14.6604384 61.4854181,14.053364 C61.4854181,13.1104296 61.4267169,12.2588907 61.3665296,11.9438362 C60.7133859,8.64616632 58.2442203,8.01457115 54.7117457,7.66533618 C52.8266198,7.47957289 47.6646297,6.98692866 45.977156,6.83385972 C45.3604219,6.77441547 45.1954641,6.404375 45.1456795,6.0016402 C45.1226449,5.82107829 45.1159574,5.67618293 45.1159574,5.55580832 C45.1159574,5.37301725 45.1315615,5.27790644 45.1456795,5.13969856 C45.1999224,4.57497818 45.4911993,4.33720117 46.0960445,4.33720117 L60.0594991,4.33720117 C60.5684905,4.34017338 60.6836637,4.2621528 60.6836637,3.74275866 L60.6836637,0.564720385 C60.6836637,0.085451111 60.546942,0.000743053139 60.0594991,0 L45.8590106,0 Z M71.8658704,0 C68.1721533,0 66.1012642,1.34195397 65.5372868,4.12988935 C65.4094817,4.75628314 65.3886762,5.52237093 65.3886762,6.06108445 C65.3886762,6.71274206 65.4072525,7.3859482 65.4778426,7.90311318 C65.7015016,9.50142048 66.6637554,11.3746574 70.9147624,11.7952255 C74.2919389,12.1288564 79.1752841,12.5449661 80.8077719,12.6861462 C81.5433945,12.7493058 81.6801163,13.2909915 81.7284147,13.6067891 C81.7447619,13.7249345 81.7581369,13.9017812 81.7581369,14.1417873 C81.7581369,14.3535575 81.7544216,14.5749873 81.7284147,14.8848405 C81.6882899,15.326214 81.4765197,15.5387272 80.8961952,15.5387272 L66.1012642,15.5387272 C65.581127,15.5387272 65.4785856,15.6561296 65.4770995,16.1628919 L65.4770995,19.311208 C65.4748704,19.8246577 65.5722103,19.9353727 66.071542,19.9353727 L80.7186055,19.9353727 C84.3402465,19.9353727 86.7046416,19.338701 87.3436673,16.192614 C87.4766738,15.5275814 87.4922779,14.6604384 87.4922779,14.053364 C87.4922779,13.1104296 87.437292,12.2588907 87.3733894,11.9438362 C86.7202457,8.64616632 84.2481079,8.01457115 80.7186055,7.66533618 C78.8297644,7.47957289 73.6752048,6.98692866 71.9840159,6.83385972 C71.3672818,6.77441547 71.1740879,6.404375 71.1220742,6.0016402 C71.1057271,5.82107829 71.1220742,5.67618293 71.1220742,5.55580832 C71.1220742,5.37301725 71.1146437,5.27790644 71.1220742,5.13969856 C71.1815185,4.57497818 71.4869133,4.33720117 72.1029044,4.33720117 L86.0656159,4.33720117 C86.570149,4.34017338 86.6897805,4.2621528 86.6897805,3.74275866 L86.6897805,0.564720385 C86.6897805,0.085451111 86.5500865,0.000743053139 86.0656159,0 L71.8658704,0 Z M101.606572,0.030810841 C100.641346,0.0293247347 100.410257,0.04715801 99.6753772,0.0605329665 C96.6429773,0.114775846 97.1192744,-0.105167883 96.0804861,2.08089445 C96.0804861,2.07792224 90.8568225,13.9548836 88.5942257,18.896187 C88.5942257,18.8976731 88.5043163,19.1042419 88.5043163,19.1042419 C88.0830052,19.9424058 88.3675945,19.9966487 89.0400576,19.9951626 L93.7926255,19.9654404 C94.092819,19.9654404 94.2800683,19.8064271 94.3573459,19.6392401 C94.3573459,19.6392401 95.0112326,18.0758563 95.9021534,15.9849048 L107.370435,15.9849048 C108.229405,18.0238426 108.883292,19.5352127 108.915243,19.609518 C109.017041,19.8420936 109.220638,19.9959056 109.479963,19.9959056 L114.352163,19.9959056 C115.07664,19.9959056 115.223021,20.085072 114.947348,19.4311852 C114.080948,17.3736711 108.448606,5.03675984 107.638678,3.15089097 C106.178578,-0.219598067 106.729924,0.17273399 103.508045,0.0612760197 C103.21231,0.0501302226 102.568083,0.0315538941 101.606572,0.030810841 Z M102.122994,4.45831883 C102.35557,4.45831883 102.60375,4.47838127 102.687715,4.48804096 C102.892797,4.51776308 103.080047,4.59578366 103.163269,4.81498434 C103.528851,5.80324501 104.774951,8.79031863 106.045572,11.8264338 L98.0830143,11.8264338 C99.5720928,8.28950082 101.014359,4.8774008 101.053741,4.78526221 C101.139935,4.58983924 101.295233,4.51553392 101.529295,4.48804096 C101.633322,4.47912432 101.874814,4.45831883 102.122994,4.45831883 Z" id="nissan"></path>
        </g>
    </g>
</svg>